<svg width="32" height="30" viewBox="0 0 32 30" fill="none" xmlns="http://www.w3.org/2000/svg">
<path d="M11.875 30L11.275 25.2C10.95 25.075 10.644 24.925 10.357 24.75C10.07 24.575 9.78855 24.3875 9.51255 24.1875L5.05005 26.0625L0.925049 18.9375L4.78755 16.0125C4.76255 15.8375 4.75005 15.669 4.75005 15.507V14.4945C4.75005 14.3315 4.76255 14.1625 4.78755 13.9875L0.925049 11.0625L5.05005 3.9375L9.51255 5.8125C9.78755 5.6125 10.075 5.425 10.375 5.25C10.675 5.075 10.975 4.925 11.275 4.8L11.875 0H20.125L20.725 4.8C21.05 4.925 21.3565 5.075 21.6445 5.25C21.9325 5.425 22.2136 5.6125 22.4876 5.8125L26.95 3.9375L31.075 11.0625L27.2125 13.9875C27.2375 14.1625 27.25 14.3315 27.25 14.4945V15.5055C27.25 15.6685 27.225 15.8375 27.175 16.0125L31.0375 18.9375L26.9125 26.0625L22.4876 24.1875C22.2126 24.3875 21.925 24.575 21.625 24.75C21.325 24.925 21.025 25.075 20.725 25.2L20.125 30H11.875ZM16.075 20.25C17.525 20.25 18.7625 19.7375 19.7875 18.7125C20.8125 17.6875 21.325 16.45 21.325 15C21.325 13.55 20.8125 12.3125 19.7875 11.2875C18.7625 10.2625 17.525 9.75 16.075 9.75C14.6 9.75 13.356 10.2625 12.343 11.2875C11.33 12.3125 10.824 13.55 10.825 15C10.826 16.45 11.3325 17.6875 12.3445 18.7125C13.3565 19.7375 14.6 20.25 16.075 20.25Z" fill="#ECFDF5"/>
</svg>
