<svg width="64" height="64" viewBox="0 0 64 64" fill="none" xmlns="http://www.w3.org/2000/svg">
<g clip-path="url(#clip0_24_623)">
<path fill-rule="evenodd" clip-rule="evenodd" d="M32.0001 0.0020752C14.329 0.0020752 0.000488281 14.6914 0.000488281 32.8123C0.000488281 47.3082 9.16988 59.6069 21.8832 63.9452C23.4831 64.2494 24.0707 63.2336 24.0707 62.3674C24.0707 61.585 24.041 59.0001 24.0266 56.2582C15.1243 58.2433 13.2463 52.3876 13.2463 52.3876C11.7901 48.5956 9.69299 47.5868 9.69299 47.5868C6.78914 45.5504 9.91173 45.5917 9.91173 45.5917C13.125 45.8238 14.8165 48.9734 14.8165 48.9734C17.6712 53.9893 22.3029 52.5393 24.1292 51.7008C24.4166 49.5806 25.2453 48.1323 26.1606 47.3134C19.0531 46.4849 11.582 43.671 11.582 31.0989C11.582 27.5173 12.8317 24.5899 14.8784 22.2927C14.5465 21.466 13.451 18.1287 15.1891 13.6095C15.1891 13.6095 17.8759 12.7271 23.9897 16.9725C26.543 16.2457 29.2802 15.8815 31.9997 15.8684C34.7191 15.8815 37.4589 16.2457 40.016 16.9725C46.1238 12.7276 48.8072 13.6091 48.8072 13.6091C50.5487 18.1278 49.4537 21.4651 49.1209 22.2914C51.1727 24.589 52.4139 27.516 52.4139 31.0976C52.4139 43.7005 44.9284 46.4745 37.8031 47.2869C38.9507 48.3057 39.9736 50.3021 39.9736 53.3634C39.9736 57.7535 39.9371 61.2872 39.9371 62.3674C39.9371 63.241 40.5124 64.2634 42.1343 63.9417C54.8434 59.5986 64.0001 47.3043 64.0001 32.8127C64.0001 14.6914 49.6712 0.0020752 32.0001 0.0020752Z" fill="#ECFDF5"/>
<path d="M12.1237 47.1084C12.0529 47.2718 11.8028 47.3213 11.5751 47.2083C11.342 47.1014 11.2127 46.8789 11.2877 46.7154C11.3568 46.5481 11.6069 46.5016 11.8388 46.6133C12.0711 46.7206 12.2034 46.9449 12.1237 47.1084ZM13.4162 48.5914C13.2636 48.7366 12.9647 48.6697 12.7634 48.4402C12.5531 48.2111 12.5145 47.9047 12.6693 47.7578C12.8261 47.613 13.1161 47.6808 13.3251 47.9099C13.5349 48.1411 13.576 48.4445 13.4162 48.5914ZM14.6778 50.4822C14.4815 50.6226 14.1606 50.4918 13.9622 50.1997C13.766 49.9076 13.766 49.5577 13.9665 49.4173C14.1657 49.2773 14.4815 49.4043 14.6829 49.6929C14.8779 49.9898 14.8779 50.3392 14.6778 50.4822ZM16.4104 52.3083C16.2349 52.5065 15.8614 52.453 15.588 52.1822C15.3082 51.9179 15.2302 51.5424 15.4057 51.3442C15.5838 51.1455 15.9593 51.2007 16.2349 51.4702C16.5126 51.7336 16.5969 52.1118 16.4104 52.3083ZM18.795 53.3675C18.717 53.624 18.3583 53.7413 17.9955 53.6314C17.633 53.5192 17.396 53.2184 17.4698 52.9589C17.5444 52.7003 17.9064 52.5786 18.271 52.6955C18.6326 52.8072 18.8704 53.1063 18.795 53.3675ZM21.4127 53.5631C21.4212 53.8339 21.1143 54.0586 20.7344 54.063C20.3512 54.0717 20.0413 53.8526 20.0371 53.5866C20.0371 53.3128 20.3381 53.0911 20.7196 53.0846C21.1011 53.0759 21.4127 53.2945 21.4127 53.5627M23.8503 53.1393C23.8957 53.4027 23.6315 53.674 23.2534 53.7461C22.882 53.8165 22.5382 53.6531 22.4912 53.3919C22.4446 53.1211 22.7137 52.8503 23.0847 52.7803C23.4633 52.7125 23.802 52.8711 23.8503 53.1393Z" fill="#ECFDF5"/>
</g>
<defs>
<clipPath id="clip0_24_623">
<rect width="64" height="64" fill="white"/>
</clipPath>
</defs>
</svg>
