<svg width="36" height="36" viewBox="0 0 36 36" fill="none" xmlns="http://www.w3.org/2000/svg">
<path fill-rule="evenodd" clip-rule="evenodd" d="M18 1.5C8.8875 1.5 1.5 8.8875 1.5 18C1.5 27.1125 8.8875 34.5 18 34.5C27.1125 34.5 34.5 27.1125 34.5 18C34.5 8.8875 27.1125 1.5 18 1.5ZM17.25 9C16.8522 9 16.4706 9.15804 16.1893 9.43934C15.908 9.72064 15.75 10.1022 15.75 10.5C15.75 10.8978 15.908 11.2794 16.1893 11.5607C16.4706 11.842 16.8522 12 17.25 12H18C18.3978 12 18.7794 11.842 19.0607 11.5607C19.342 11.2794 19.5 10.8978 19.5 10.5C19.5 10.1022 19.342 9.72064 19.0607 9.43934C18.7794 9.15804 18.3978 9 18 9H17.25ZM15 15C14.6022 15 14.2206 15.158 13.9393 15.4393C13.658 15.7206 13.5 16.1022 13.5 16.5C13.5 16.8978 13.658 17.2794 13.9393 17.5607C14.2206 17.842 14.6022 18 15 18H16.5V22.5H15C14.6022 22.5 14.2206 22.658 13.9393 22.9393C13.658 23.2206 13.5 23.6022 13.5 24C13.5 24.3978 13.658 24.7794 13.9393 25.0607C14.2206 25.342 14.6022 25.5 15 25.5H21C21.3978 25.5 21.7794 25.342 22.0607 25.0607C22.342 24.7794 22.5 24.3978 22.5 24C22.5 23.6022 22.342 23.2206 22.0607 22.9393C21.7794 22.658 21.3978 22.5 21 22.5H19.5V16.5C19.5 16.1022 19.342 15.7206 19.0607 15.4393C18.7794 15.158 18.3978 15 18 15H15Z" fill="url(#paint0_linear_186_216)"/>
<defs>
<linearGradient id="paint0_linear_186_216" x1="34.5" y1="18" x2="1.5" y2="18" gradientUnits="userSpaceOnUse">
<stop stop-color="#0092B8"/>
<stop offset="1" stop-color="#00A63E"/>
</linearGradient>
</defs>
</svg>
