<svg width="16" height="17" viewBox="0 0 16 17" fill="none" xmlns="http://www.w3.org/2000/svg">
<path d="M8.00001 1.16663H9.33334V6.49996H14.6667V9.16663H13.3333L8.00001 14.5V7.83329V3.83329H6.66668V2.49996H8.00001V1.16663ZM5.33334 5.16663V3.83329H6.66668V5.16663H5.33334ZM4.00001 6.49996V5.16663H5.33334V6.49996H4.00001ZM2.66668 7.83329V6.49996H4.00001V7.83329H2.66668ZM9.33334 13.1666V14.5H8.00001V15.8333H6.66668V10.5H1.33334V7.83329H2.66668L8.00001 2.49996V9.16663V13.1666H9.33334ZM10.6667 11.8333V13.1666H9.33334V11.8333H10.6667ZM12 10.5V11.8333H10.6667V10.5H12ZM12 10.5H13.3333V9.16663L12 10.5Z" fill="url(#paint0_linear_129_183)"/>
<defs>
<linearGradient id="paint0_linear_129_183" x1="14.6667" y1="8.49996" x2="1.33334" y2="8.49996" gradientUnits="userSpaceOnUse">
<stop stop-color="#0092B8"/>
<stop offset="1" stop-color="#00A63E"/>
</linearGradient>
</defs>
</svg>
